<!-- Generated by IcoMoon.io -->
<svg version="1.1" xmlns="http://www.w3.org/2000/svg" width="384" height="448" viewBox="0 0 384 448">
<title></title>
<g id="icomoon-ignore">
</g>
<path fill="#000" d="M256 375c-2.5-14.5-12-64.5-35-124.5-0.25 0-0.75 0.25-1 0.25 0 0-97.25 34-128.75 102.5-1.5-1.25-3.75-2.75-3.75-2.75 28.5 23.25 64.75 37.5 104.5 37.5 22.75 0 44.25-4.75 64-13zM209.75 223.25c-4-9.25-8.5-18.5-13.25-27.75-84.5 25.25-165.5 23.25-168.25 23.25-0.25 1.75-0.25 3.5-0.25 5.25 0 42 16 80.5 42 109.5v0c44.75-79.75 133.25-108.25 133.25-108.25 2.25-0.75 4.5-1.25 6.5-2zM183 170.25c-28.5-50.5-58.75-91.5-61-94.5-45.75 21.5-79.75 63.75-90.5 114.5 4.25 0 72.75 0.75 151.5-20zM354 250c-3.5-1-49.25-15.5-102.25-7.25 21.5 59.25 30.25 107.5 32 117.25 36.75-24.75 62.75-64.25 70.25-110zM152.75 64.75c-0.25 0-0.25 0-0.5 0.25 0 0 0.25-0.25 0.5-0.25zM300.25 101c-28.75-25.5-66.75-41-108.25-41-13.25 0-26.25 1.75-38.75 4.75 2.5 3.25 33.5 44 61.5 95.5 61.75-23 85-58.5 85.5-59.25zM356 222.25c-0.5-38.75-14.25-74.5-37.25-102.5-0.5 0.5-26.75 38.5-91.5 65 3.75 7.75 7.5 15.75 11 23.75 1.25 2.75 2.25 5.75 3.5 8.5 56.5-7.25 112.25 5 114.25 5.25zM384 224c0 106-86 192-192 192s-192-86-192-192 86-192 192-192 192 86 192 192z"></path>
</svg>
