<!-- Generated by IcoMoon.io -->
<svg version="1.1" xmlns="http://www.w3.org/2000/svg" width="768" height="768" viewBox="0 0 768 768">
<title></title>
<g id="icomoon-ignore">
</g>
<path fill="#000" d="M755.2 70.4c-9.6-6.4-25.6-6.4-35.2 0-22.4 16-48 28.8-73.6 38.4-64-57.6-163.2-60.8-230.4-3.2-41.6 35.2-64 83.2-64 134.4-92.8-6.4-176-54.4-230.4-131.2-6.4-9.6-16-12.8-28.8-12.8s-22.4 9.6-25.6 19.2c-3.2 3.2-35.2 80-32 172.8 3.2 80 35.2 182.4 153.6 256-48 22.4-102.4 32-156.8 32-12.8 0-28.8 9.6-32 22.4s3.2 28.8 16 35.2c80 44.8 166.4 67.2 246.4 67.2s156.8-19.2 227.2-60.8c137.6-76.8 214.4-224 214.4-400 0-6.4 0-9.6 0-16 32-35.2 54.4-76.8 64-121.6 3.2-12.8-3.2-25.6-12.8-32zM646.4 192c-6.4 6.4-9.6 19.2-9.6 28.8 3.2 6.4 3.2 12.8 3.2 19.2 0 153.6-67.2 278.4-182.4 345.6-89.6 51.2-195.2 64-300.8 38.4 41.6-12.8 80-28.8 115.2-54.4 12.8-6.4 16-16 16-28.8s-9.6-22.4-19.2-25.6c-185.6-83.2-179.2-240-160-320 70.4 70.4 169.6 112 275.2 108.8 16 0 32-16 32-32v-32c0-32 12.8-64 38.4-86.4 44.8-41.6 118.4-35.2 156.8 9.6 9.6 9.6 22.4 12.8 32 9.6 6.4-3.2 16-3.2 22.4-6.4-6.4 9.6-12.8 16-19.2 25.6z"></path>
</svg>
